<svg width="2306" height="324" viewBox="0 0 2306 324" fill="none" xmlns="http://www.w3.org/2000/svg">
<g clip-path="url(#clip0_40_808)">
<ellipse cx="267.5" cy="161" rx="6.5" ry="5" fill="white"/>
<path d="M34.5781 214.148C34.5781 104.942 122.907 16.5737 232.065 16.5737H231.6C298.893 16.5737 353.345 71.0502 353.345 138.372C353.345 180.256 319.468 214.148 277.603 214.148H278.068C252.384 214.148 231.6 193.355 231.6 167.66C231.6 151.472 244.694 138.372 260.875 138.372H260.41C270.17 138.372 278.068 146.273 278.068 156.038C278.068 162.461 272.872 167.66 266.451 167.66C263.369 167.66 260.875 164.957 260.875 161.616" stroke="white" stroke-width="5" stroke-miterlimit="10" stroke-linecap="round" stroke-linejoin="round"/>
<circle cx="34" cy="224" r="15" fill="white"/>
<ellipse cx="236.5" cy="16.4999" rx="12.5" ry="12.5055" fill="white"/>
<ellipse cx="353" cy="138" rx="10" ry="10.0044" fill="white"/>
<ellipse cx="278.5" cy="214.5" rx="7.5" ry="7.50331" fill="white"/>
<ellipse cx="231" cy="171" rx="5" ry="5.00221" fill="white"/>
<path d="M320.623 394.025C211.466 394.025 123.137 305.657 123.137 196.451V196.916C123.137 129.594 177.589 75.1175 244.882 75.1175C286.747 75.1175 320.623 109.009 320.623 150.893V150.428C320.623 176.123 299.84 196.916 274.156 196.916C257.975 196.916 244.882 183.817 244.882 167.629V168.093C244.882 158.329 252.779 150.428 262.539 150.428C268.96 150.428 274.156 155.626 274.156 162.05C274.156 165.134 271.454 167.629 268.115 167.629" stroke="white" stroke-width="2" stroke-miterlimit="10" stroke-linecap="round" stroke-linejoin="round"/>
<ellipse cx="157.295" cy="110.899" rx="5.811" ry="5.80843" transform="rotate(-90 157.295 110.899)" fill="white"/>
<ellipse cx="297.096" cy="95.7609" rx="4.6488" ry="4.64675" transform="rotate(-90 297.096 95.7609)" fill="white"/>
<ellipse cx="310.655" cy="179.711" rx="3.4866" ry="3.48506" transform="rotate(-90 310.655 179.711)" fill="white"/>
<ellipse cx="254.855" cy="189.533" rx="2.3244" ry="2.32337" transform="rotate(-90 254.855 189.533)" fill="white"/>
<path d="M500.422 107.853C500.422 217.058 412.093 305.427 302.935 305.427H303.4C236.107 305.427 181.655 250.95 181.655 183.628C181.655 141.744 215.532 107.853 257.397 107.853H256.932C282.616 107.853 303.4 128.645 303.4 154.341C303.4 170.529 290.306 183.628 274.125 183.628H274.59C264.83 183.628 256.932 175.727 256.932 165.963C256.932 159.539 262.128 154.341 268.549 154.341C271.631 154.341 274.125 157.043 274.125 160.384" stroke="white" stroke-width="5" stroke-miterlimit="10" stroke-linecap="round" stroke-linejoin="round"/>
<ellipse cx="499" cy="99" rx="15" ry="15.0066" transform="rotate(-180 499 99)" fill="white"/>
<ellipse cx="298.5" cy="305.5" rx="12.5" ry="12.5055" transform="rotate(-180 298.5 305.5)" fill="white"/>
<ellipse cx="181" cy="184" rx="10" ry="10.0044" transform="rotate(-180 181 184)" fill="white"/>
<ellipse cx="255.5" cy="107.5" rx="7.5" ry="7.50331" transform="rotate(-180 255.5 107.5)" fill="white"/>
<ellipse cx="303" cy="151" rx="5" ry="5.00221" transform="rotate(-180 303 151)" fill="white"/>
<path d="M214.377 -72.0249C323.534 -72.0249 411.863 16.3432 411.863 125.549V125.084C411.863 192.406 357.411 246.883 290.118 246.883C248.253 246.883 214.377 212.991 214.377 171.107V171.572C214.377 145.877 235.16 125.084 260.844 125.084C277.025 125.084 290.118 138.184 290.118 154.372V153.907C290.118 163.671 282.221 171.572 272.461 171.572C266.04 171.572 260.844 166.374 260.844 159.95C260.844 156.867 263.546 154.372 266.885 154.372" stroke="white" stroke-width="2" stroke-miterlimit="10" stroke-linecap="round" stroke-linejoin="round"/>
<ellipse cx="376.809" cy="210.811" rx="5.811" ry="5.80843" transform="rotate(90 376.809 210.811)" fill="white"/>
<ellipse cx="237.646" cy="225.649" rx="4.6488" ry="4.64675" transform="rotate(90 237.646 225.649)" fill="white"/>
<ellipse cx="225.486" cy="141.487" rx="3.4866" ry="3.48506" transform="rotate(90 225.486 141.487)" fill="white"/>
<ellipse cx="280.323" cy="132.324" rx="2.3244" ry="2.32337" transform="rotate(90 280.323 132.324)" fill="white"/>
<circle cx="268" cy="161" r="5" transform="rotate(-90 268 161)" fill="black"/>
</g>
<path d="M801.38 104C803.513 104 805.18 104.667 806.38 106C807.713 107.2 808.38 108.867 808.38 111V113.8C808.38 115.933 807.713 117.667 806.38 119C805.18 120.2 803.513 120.8 801.38 120.8H647.58V168.4H789.58C794.246 168.4 796.58 170.733 796.58 175.4V178.4C796.58 183.067 794.246 185.4 789.58 185.4H647.58V237C647.58 241.667 645.246 244 640.58 244H636.18C631.513 244 629.18 241.667 629.18 237V111C629.18 106.333 631.513 104 636.18 104H801.38ZM862.528 104C865.861 104 867.528 105.667 867.528 109V115.2C867.528 118.533 865.861 120.2 862.528 120.2H855.328C851.995 120.2 850.328 118.533 850.328 115.2V109C850.328 105.667 851.995 104 855.328 104H862.528ZM862.528 142.4C865.861 142.4 867.528 144.067 867.528 147.4V239C867.528 242.333 865.861 244 862.528 244H855.328C851.995 244 850.328 242.333 850.328 239V147.4C850.328 144.067 851.995 142.4 855.328 142.4H862.528ZM987.339 141C1009.07 141 1024.61 145.133 1033.94 153.4C1043.27 161.667 1047.94 174.333 1047.94 191.4V239C1047.94 242.333 1046.27 244 1042.94 244H1035.74C1032.41 244 1030.74 242.333 1030.74 239V191.4C1030.74 178.6 1027.07 169.667 1019.74 164.6C1012.41 159.533 1000.41 157 983.739 157C966.006 157 952.406 159.867 942.939 165.6C933.472 171.333 928.739 179.933 928.739 191.4V239C928.739 242.333 927.072 244 923.739 244H916.539C913.206 244 911.539 242.333 911.539 239V147.4C911.539 144.067 913.206 142.4 916.539 142.4H923.739C927.072 142.4 928.739 144.067 928.739 147.4V158.4C940.739 146.8 960.272 141 987.339 141ZM1304.34 235.6C1306.07 237.867 1306.47 239.867 1305.54 241.6C1304.74 243.2 1302.87 244 1299.94 244H1293.74C1290.54 244 1287.74 242.533 1285.34 239.6L1265.74 213H1124.14L1104.54 239.6C1102.14 242.533 1099.34 244 1096.14 244H1089.94C1087 244 1085.07 243.2 1084.14 241.6C1083.34 239.867 1083.8 237.867 1085.54 235.6L1179.54 108C1181.67 105.067 1184.6 103.6 1188.34 103.6H1201.54C1205.27 103.6 1208.2 105.067 1210.34 108L1304.34 235.6ZM1136.14 196.4H1253.74L1194.94 116.4L1136.14 196.4ZM1511.72 168.6C1530.26 174.467 1539.52 186.2 1539.52 203.8C1539.52 230.6 1520.66 244 1482.92 244H1351.92C1347.26 244 1344.92 241.667 1344.92 237V111C1344.92 106.333 1347.26 104 1351.92 104H1475.52C1485.12 104 1493.39 105.133 1500.32 107.4C1507.39 109.667 1512.72 112.733 1516.32 116.6C1520.06 120.467 1522.72 124.533 1524.32 128.8C1526.06 133.067 1526.92 137.6 1526.92 142.4C1526.92 154 1521.86 162.733 1511.72 168.6ZM1475.92 120.6H1363.32V164.8H1475.92C1486.86 164.8 1495.12 162.8 1500.72 158.8C1506.32 154.8 1509.12 149.267 1509.12 142.2C1509.12 134.733 1506.39 129.267 1500.92 125.8C1495.59 122.333 1487.26 120.6 1475.92 120.6ZM1481.52 227.4C1495.79 227.4 1505.92 225.733 1511.92 222.4C1518.06 218.933 1521.12 212.933 1521.12 204.4C1521.12 196 1518.06 190.067 1511.92 186.6C1505.79 183 1495.66 181.2 1481.52 181.2H1363.32V227.4H1481.52ZM1752.84 104C1756.04 104 1757.97 104.867 1758.64 106.6C1759.44 108.333 1758.57 110.333 1756.04 112.6L1669.64 190.6V237C1669.64 241.667 1667.3 244 1662.64 244H1658.24C1653.57 244 1651.24 241.667 1651.24 237V191.4L1564.24 112.6C1561.84 110.333 1560.97 108.333 1561.64 106.6C1562.3 104.867 1564.24 104 1567.44 104H1576.04C1579.37 104 1582.3 105.067 1584.84 107.2L1659.04 174.4H1661.44L1735.44 107.2C1737.97 105.067 1740.9 104 1744.24 104H1752.84ZM1807.4 139C1807.4 142.6 1809.27 145.8 1813 148.6C1816.74 151.267 1822.34 153.6 1829.8 155.6C1837.4 157.467 1844.6 158.933 1851.4 160C1858.2 161.067 1866.8 162.2 1877.2 163.4C1884.94 164.333 1890.94 165.067 1895.2 165.6C1899.6 166.133 1905.34 166.933 1912.4 168C1919.6 168.933 1925.27 169.933 1929.4 171C1933.67 172.067 1938.6 173.333 1944.2 174.8C1949.8 176.267 1954.2 177.933 1957.4 179.8C1960.6 181.667 1963.74 183.8 1966.8 186.2C1970 188.6 1972.27 191.333 1973.6 194.4C1975.07 197.467 1975.8 200.8 1975.8 204.4C1975.8 219.067 1967.94 229.733 1952.2 236.4C1936.6 243.067 1912.27 246.4 1879.2 246.4H1876.8C1856.8 246.4 1838.94 244.667 1823.2 241.2C1807.6 237.733 1796.67 234.067 1790.4 230.2C1788.27 228.867 1787.07 227.333 1786.8 225.6C1786.67 223.733 1787.47 221.933 1789.2 220.2L1791.6 218C1794.27 215.333 1797.47 214.8 1801.2 216.4C1805.2 218.133 1810.2 219.933 1816.2 221.8C1822.34 223.533 1831.14 225.4 1842.6 227.4C1854.2 229.267 1865.6 230.2 1876.8 230.2H1879.2C1905.34 230.2 1924.74 228 1937.4 223.6C1950.07 219.2 1956.4 213.4 1956.4 206.2C1956.4 204.067 1955.87 202.133 1954.8 200.4C1953.74 198.533 1952 196.867 1949.6 195.4C1947.2 193.933 1944.74 192.667 1942.2 191.6C1939.8 190.4 1936.4 189.333 1932 188.4C1927.6 187.333 1923.74 186.467 1920.4 185.8C1917.2 185.133 1912.74 184.467 1907 183.8C1901.27 183 1896.6 182.4 1893 182C1889.54 181.6 1884.6 181.067 1878.2 180.4C1870.47 179.6 1863.54 178.733 1857.4 177.8C1851.4 176.867 1844.67 175.667 1837.2 174.2C1829.74 172.733 1823.27 171 1817.8 169C1812.47 166.867 1807.4 164.467 1802.6 161.8C1797.8 159 1794.14 155.733 1791.6 152C1789.2 148.133 1788 143.867 1788 139.2C1788 126.267 1795.07 116.8 1809.2 110.8C1823.34 104.667 1845.34 101.6 1875.2 101.6H1880.2C1899.8 101.6 1917 103.333 1931.8 106.8C1946.6 110.267 1957.07 113.933 1963.2 117.8C1967.87 120.6 1968.27 123.933 1964.4 127.8L1962.2 130C1959.54 132.667 1956.27 133.2 1952.4 131.6C1948.54 129.867 1943.74 128.067 1938 126.2C1932.4 124.333 1924.14 122.467 1913.2 120.6C1902.27 118.733 1891.27 117.8 1880.2 117.8H1875.2C1851.34 117.8 1834.07 119.6 1823.4 123.2C1812.74 126.667 1807.4 131.933 1807.4 139ZM2034.44 139C2034.44 142.6 2036.3 145.8 2040.04 148.6C2043.77 151.267 2049.37 153.6 2056.84 155.6C2064.44 157.467 2071.64 158.933 2078.44 160C2085.24 161.067 2093.84 162.2 2104.24 163.4C2111.97 164.333 2117.97 165.067 2122.24 165.6C2126.64 166.133 2132.37 166.933 2139.44 168C2146.64 168.933 2152.3 169.933 2156.44 171C2160.7 172.067 2165.64 173.333 2171.24 174.8C2176.84 176.267 2181.24 177.933 2184.44 179.8C2187.64 181.667 2190.77 183.8 2193.84 186.2C2197.04 188.6 2199.3 191.333 2200.64 194.4C2202.1 197.467 2202.84 200.8 2202.84 204.4C2202.84 219.067 2194.97 229.733 2179.24 236.4C2163.64 243.067 2139.3 246.4 2106.24 246.4H2103.84C2083.84 246.4 2065.97 244.667 2050.24 241.2C2034.64 237.733 2023.7 234.067 2017.44 230.2C2015.3 228.867 2014.1 227.333 2013.84 225.6C2013.7 223.733 2014.5 221.933 2016.24 220.2L2018.64 218C2021.3 215.333 2024.5 214.8 2028.24 216.4C2032.24 218.133 2037.24 219.933 2043.24 221.8C2049.37 223.533 2058.17 225.4 2069.64 227.4C2081.24 229.267 2092.64 230.2 2103.84 230.2H2106.24C2132.37 230.2 2151.77 228 2164.44 223.6C2177.1 219.2 2183.44 213.4 2183.44 206.2C2183.44 204.067 2182.9 202.133 2181.84 200.4C2180.77 198.533 2179.04 196.867 2176.64 195.4C2174.24 193.933 2171.77 192.667 2169.24 191.6C2166.84 190.4 2163.44 189.333 2159.04 188.4C2154.64 187.333 2150.77 186.467 2147.44 185.8C2144.24 185.133 2139.77 184.467 2134.04 183.8C2128.3 183 2123.64 182.4 2120.04 182C2116.57 181.6 2111.64 181.067 2105.24 180.4C2097.5 179.6 2090.57 178.733 2084.44 177.8C2078.44 176.867 2071.7 175.667 2064.24 174.2C2056.77 172.733 2050.3 171 2044.84 169C2039.5 166.867 2034.44 164.467 2029.64 161.8C2024.84 159 2021.17 155.733 2018.64 152C2016.24 148.133 2015.04 143.867 2015.04 139.2C2015.04 126.267 2022.1 116.8 2036.24 110.8C2050.37 104.667 2072.37 101.6 2102.24 101.6H2107.24C2126.84 101.6 2144.04 103.333 2158.84 106.8C2173.64 110.267 2184.1 113.933 2190.24 117.8C2194.9 120.6 2195.3 123.933 2191.44 127.8L2189.24 130C2186.57 132.667 2183.3 133.2 2179.44 131.6C2175.57 129.867 2170.77 128.067 2165.04 126.2C2159.44 124.333 2151.17 122.467 2140.24 120.6C2129.3 118.733 2118.3 117.8 2107.24 117.8H2102.24C2078.37 117.8 2061.1 119.6 2050.44 123.2C2039.77 126.667 2034.44 131.933 2034.44 139Z" fill="white"/>
<defs>
<clipPath id="clip0_40_808">
<rect width="511" height="324" fill="white" transform="translate(12)"/>
</clipPath>
</defs>
</svg>
